<?xml version="1.0" encoding="utf-8" ?>
<svg baseProfile="full" height="225" version="1.1" width="1000" xmlns="http://www.w3.org/2000/svg" xmlns:ev="http://www.w3.org/2001/xml-events" xmlns:xlink="http://www.w3.org/1999/xlink"><defs /><line stroke="#43c200" stroke-linecap="round" stroke-width="5.6" x1="106.66666666666666" x2="106.66666666666666" y1="135" y2="150" /><g transform="rotate(-25, 106.66666666666666, 130)"><text dominant-baseline="middle" style="fill: #3c3c3e; font-size: 21px; font-weight: bold; font-family: Liberation Sans;" text-anchor="start" x="106.66666666666666" y="130">Driver introduced</text></g><line stroke="#43c200" stroke-linecap="round" stroke-width="5.6" x1="178.33333333333331" x2="178.33333333333331" y1="135" y2="150" /><g transform="rotate(-25, 178.33333333333331, 130)"><text dominant-baseline="middle" style="fill: #3c3c3e; font-size: 21px; font-weight: bold; font-family: Liberation Sans;" text-anchor="start" x="178.33333333333331" y="130">Fermi</text></g><line stroke="#43c200" stroke-linecap="round" stroke-width="5.6" x1="307.3333333333333" x2="307.3333333333333" y1="135" y2="150" /><g transform="rotate(-25, 307.3333333333333, 130)"><text dominant-baseline="middle" style="fill: #3c3c3e; font-size: 21px; font-weight: bold; font-family: Liberation Sans;" text-anchor="start" x="307.3333333333333" y="130">Kepler</text></g><line stroke="#43c200" stroke-linecap="round" stroke-width="5.6" x1="472.16666666666663" x2="472.16666666666663" y1="135" y2="150" /><g transform="rotate(-25, 472.16666666666663, 130)"><text dominant-baseline="middle" style="fill: #3c3c3e; font-size: 21px; font-weight: bold; font-family: Liberation Sans;" text-anchor="start" x="472.16666666666663" y="130">Maxwell</text></g><line stroke="#43c200" stroke-linecap="round" stroke-width="5.6" x1="708.6666666666666" x2="708.6666666666666" y1="135" y2="150" /><g transform="rotate(-25, 708.6666666666666, 130)"><text dominant-baseline="middle" style="fill: #3c3c3e; font-size: 21px; font-weight: bold; font-family: Liberation Sans;" text-anchor="start" x="708.6666666666666" y="130">Pascal</text></g><line stroke="#5c3dcc" stroke-linecap="round" stroke-width="8" x1="35.0" x2="930" y1="150" y2="150" /><line stroke="#5c3dcc" stroke-linecap="round" stroke-width="8" x1="35.0" x2="35.0" y1="135" y2="165" /><line stroke="#5c3dcc" stroke-linecap="round" stroke-width="8" x1="930" x2="930" y1="135" y2="165" /><g transform="rotate(-25, 35.0, 125)"><text dominant-baseline="middle" style="fill: #3c3c3e; font-size: 21px; font-weight: bold; font-family: Liberation Sans;" text-anchor="start" x="35.0" y="125">2009</text></g><g transform="rotate(-25, 930, 125)"><text dominant-baseline="middle" style="fill: #3c3c3e; font-size: 21px; font-weight: bold; font-family: Liberation Sans;" text-anchor="start" x="930" y="125">2019</text></g><line stroke="#5c3dcc" stroke-linecap="round" stroke-width="5.6" x1="70.0" x2="70.0" y1="139.5" y2="160.5" /><line stroke="#5c3dcc" stroke-linecap="round" stroke-width="5.6" x1="165.55555555555554" x2="165.55555555555554" y1="139.5" y2="160.5" /><line stroke="#5c3dcc" stroke-linecap="round" stroke-width="5.6" x1="261.1111111111111" x2="261.1111111111111" y1="139.5" y2="160.5" /><line stroke="#5c3dcc" stroke-linecap="round" stroke-width="5.6" x1="356.6666666666667" x2="356.6666666666667" y1="139.5" y2="160.5" /><line stroke="#5c3dcc" stroke-linecap="round" stroke-width="5.6" x1="452.22222222222223" x2="452.22222222222223" y1="139.5" y2="160.5" /><line stroke="#5c3dcc" stroke-linecap="round" stroke-width="5.6" x1="547.7777777777778" x2="547.7777777777778" y1="139.5" y2="160.5" /><line stroke="#5c3dcc" stroke-linecap="round" stroke-width="5.6" x1="643.3333333333334" x2="643.3333333333334" y1="139.5" y2="160.5" /><line stroke="#5c3dcc" stroke-linecap="round" stroke-width="5.6" x1="738.8888888888889" x2="738.8888888888889" y1="139.5" y2="160.5" /><line stroke="#5c3dcc" stroke-linecap="round" stroke-width="5.6" x1="834.4444444444445" x2="834.4444444444445" y1="139.5" y2="160.5" /><g transform="rotate(0, 30.0, 202.5)"><text dominant-baseline="middle" style="fill: #3c3c3e; font-size: 28px; font-weight: bold; font-family: Liberation Sans;" text-anchor="start" x="30.0" y="202.5">Kernel</text></g></svg>