<?xml version="1.0" encoding="utf-8" ?>
<svg baseProfile="full" height="225" version="1.1" width="1000" xmlns="http://www.w3.org/2000/svg" xmlns:ev="http://www.w3.org/2001/xml-events" xmlns:xlink="http://www.w3.org/1999/xlink"><defs /><line stroke="#43c200" stroke-linecap="round" stroke-width="5.6" x1="113.33333333333333" x2="113.33333333333333" y1="133.5" y2="150" /><g transform="rotate(-25, 113.33333333333333, 130)"><text dominant-baseline="middle" style="fill: #3c3c3e; font-size: 21px; font-weight: bold; font-family: Liberation Sans;" text-anchor="start" x="113.33333333333333" y="130">Driver introduced</text></g><line stroke="#43c200" stroke-linecap="round" stroke-width="5.6" x1="186.66666666666666" x2="186.66666666666666" y1="133.5" y2="150" /><g transform="rotate(-25, 186.66666666666666, 130)"><text dominant-baseline="middle" style="fill: #3c3c3e; font-size: 21px; font-weight: bold; font-family: Liberation Sans;" text-anchor="start" x="186.66666666666666" y="130">Fermi</text></g><line stroke="#43c200" stroke-linecap="round" stroke-width="5.6" x1="318.66666666666663" x2="318.66666666666663" y1="133.5" y2="150" /><g transform="rotate(-25, 318.66666666666663, 130)"><text dominant-baseline="middle" style="fill: #3c3c3e; font-size: 21px; font-weight: bold; font-family: Liberation Sans;" text-anchor="start" x="318.66666666666663" y="130">Kepler</text></g><line stroke="#43c200" stroke-linecap="round" stroke-width="5.6" x1="487.3333333333333" x2="487.3333333333333" y1="133.5" y2="150" /><g transform="rotate(-25, 487.3333333333333, 130)"><text dominant-baseline="middle" style="fill: #3c3c3e; font-size: 21px; font-weight: bold; font-family: Liberation Sans;" text-anchor="start" x="487.3333333333333" y="130">Maxwell</text></g><line stroke="#43c200" stroke-linecap="round" stroke-width="5.6" x1="729.3333333333334" x2="729.3333333333334" y1="133.5" y2="150" /><g transform="rotate(-25, 729.3333333333334, 130)"><text dominant-baseline="middle" style="fill: #3c3c3e; font-size: 21px; font-weight: bold; font-family: Liberation Sans;" text-anchor="start" x="729.3333333333334" y="130">Pascal</text></g><line stroke="#5c3dcc" stroke-linecap="round" stroke-width="8" x1="40.0" x2="920" y1="150" y2="150" /><line stroke="#5c3dcc" stroke-linecap="round" stroke-width="8" x1="40.0" x2="40.0" y1="135" y2="165" /><line stroke="#5c3dcc" stroke-linecap="round" stroke-width="8" x1="920" x2="920" y1="135" y2="165" /><g transform="rotate(-25, 40.0, 125)"><text dominant-baseline="middle" style="fill: #3c3c3e; font-size: 21px; font-weight: bold; font-family: Liberation Sans;" text-anchor="start" x="40.0" y="125">2009</text></g><g transform="rotate(-25, 920, 125)"><text dominant-baseline="middle" style="fill: #3c3c3e; font-size: 21px; font-weight: bold; font-family: Liberation Sans;" text-anchor="start" x="920" y="125">2019</text></g><line stroke="#5c3dcc" stroke-linecap="round" stroke-width="5.6" x1="40.0" x2="40.0" y1="139.5" y2="160.5" /><line stroke="#5c3dcc" stroke-linecap="round" stroke-width="5.6" x1="128.0" x2="128.0" y1="139.5" y2="160.5" /><line stroke="#5c3dcc" stroke-linecap="round" stroke-width="5.6" x1="216.0" x2="216.0" y1="139.5" y2="160.5" /><line stroke="#5c3dcc" stroke-linecap="round" stroke-width="5.6" x1="304.0" x2="304.0" y1="139.5" y2="160.5" /><line stroke="#5c3dcc" stroke-linecap="round" stroke-width="5.6" x1="392.0" x2="392.0" y1="139.5" y2="160.5" /><line stroke="#5c3dcc" stroke-linecap="round" stroke-width="5.6" x1="480.0" x2="480.0" y1="139.5" y2="160.5" /><line stroke="#5c3dcc" stroke-linecap="round" stroke-width="5.6" x1="568.0" x2="568.0" y1="139.5" y2="160.5" /><line stroke="#5c3dcc" stroke-linecap="round" stroke-width="5.6" x1="656.0" x2="656.0" y1="139.5" y2="160.5" /><line stroke="#5c3dcc" stroke-linecap="round" stroke-width="5.6" x1="744.0" x2="744.0" y1="139.5" y2="160.5" /><line stroke="#5c3dcc" stroke-linecap="round" stroke-width="5.6" x1="832.0" x2="832.0" y1="139.5" y2="160.5" /><g transform="rotate(0, 35.0, 202.5)"><text dominant-baseline="middle" style="fill: #3c3c3e; font-size: 28px; font-weight: bold; font-family: Liberation Sans;" text-anchor="start" x="35.0" y="202.5">Kernel</text></g></svg>